<svg xmlns="http://www.w3.org/2000/svg" viewBox="0 0 120 120" width="120" height="120">
  <defs>
    <linearGradient id="g" x1="0%" y1="100%" x2="100%" y2="0%">
      <stop offset="0%" stop-color="#D4A810"/>
      <stop offset="100%" stop-color="#F5C518"/>
    </linearGradient>
  </defs>
  <rect width="120" height="120" rx="24" fill="#161616"/>
  <g transform="translate(20, 25) scale(0.67)">
    <path d="M10 100 L10 35 L40 10 L55 30 L55 100 L45 100 L45 42 L40 35 L20 50 L20 100 Z" fill="url(#g)"/>
    <path d="M65 100 L65 42 L60 35 L55 40 L55 30 L60 10 L75 30 L75 42 L80 35 L100 50 L100 100 L90 100 L90 55 L80 48 L75 55 L75 100 Z" fill="url(#g)"/>
  </g>
</svg>
